<svg version="1.1" id="Layer_1" xmlns="http://www.w3.org/2000/svg" xmlns:xlink="http://www.w3.org/1999/xlink" x="0px" y="0px"
	 width="100%" viewBox="0 0 473 464" enable-background="new 0 0 473 464" xml:space="preserve">
<path fill="#F7F7F7" opacity="1.000000" stroke="none" 
	d="
M329.000000,465.000000 
	C219.333328,465.000000 110.166664,465.000000 1.000000,465.000000 
	C1.000000,310.333344 1.000000,155.666672 1.000000,1.000000 
	C158.666672,1.000000 316.333344,1.000000 474.000000,1.000000 
	C474.000000,155.666672 474.000000,310.333344 474.000000,465.000000 
	C425.833344,465.000000 377.666656,465.000000 329.000000,465.000000 
M421.672302,421.880829 
	C422.004852,419.759155 422.627563,417.637573 422.628418,415.515747 
	C422.675385,301.209625 422.674774,186.903458 422.660034,72.597298 
	C422.658966,64.464439 420.332153,62.174149 412.232635,62.168858 
	C387.738464,62.152851 363.244263,62.162132 338.750092,62.163158 
	C327.982178,62.163612 326.234467,63.897858 326.234406,74.584007 
	C326.233917,187.557159 326.234131,300.530304 326.234222,413.503448 
	C326.234222,414.669830 326.190765,415.838226 326.243530,417.002258 
	C326.516022,423.013275 329.253937,425.798157 335.341492,425.811127 
	C361.501801,425.866821 387.663116,425.922974 413.821472,425.691223 
	C416.302277,425.669250 418.765320,423.642242 421.672302,421.880829 
M292.700134,321.500183 
	C292.699768,266.690704 292.707275,211.881241 292.690094,157.071777 
	C292.687683,149.314224 290.273590,146.921631 282.553314,146.916992 
	C257.397614,146.901825 232.241913,146.906006 207.086212,146.913910 
	C198.618088,146.916565 196.387238,149.104660 196.386368,157.508179 
	C196.377365,243.470703 196.376907,329.433228 196.387299,415.395752 
	C196.388275,423.569489 198.643372,425.827515 206.771332,425.833069 
	C231.760437,425.850067 256.749542,425.844696 281.738647,425.836365 
	C290.606171,425.833435 292.692841,423.768555 292.695770,414.959900 
	C292.706055,384.140015 292.699982,353.320099 292.700134,321.500183 
M159.847519,352.500061 
	C159.847519,315.697906 159.852982,278.895782 159.843323,242.093628 
	C159.841156,233.826431 157.279190,231.188004 149.237610,231.183502 
	C124.092285,231.169403 98.946930,231.168976 73.801605,231.183578 
	C65.840332,231.188202 63.346813,233.642776 63.343891,241.655197 
	C63.322762,299.606018 63.321953,357.556854 63.343788,415.507690 
	C63.346828,423.579346 65.683929,425.825409 73.866394,425.829987 
	C98.845200,425.843994 123.824013,425.841217 148.802826,425.831879 
	C157.438751,425.828644 159.838684,423.464508 159.843658,414.947937 
	C159.855591,394.465302 159.847519,373.982697 159.847519,352.500061 
z"/>
<path fill="#060606" opacity="1.000000" stroke="none" 
	d="
M421.454468,422.213470 
	C418.765320,423.642242 416.302277,425.669250 413.821472,425.691223 
	C387.663116,425.922974 361.501801,425.866821 335.341492,425.811127 
	C329.253937,425.798157 326.516022,423.013275 326.243530,417.002258 
	C326.190765,415.838226 326.234222,414.669830 326.234222,413.503448 
	C326.234131,300.530304 326.233917,187.557159 326.234406,74.584007 
	C326.234467,63.897858 327.982178,62.163612 338.750092,62.163158 
	C363.244263,62.162132 387.738464,62.152851 412.232635,62.168858 
	C420.332153,62.174149 422.658966,64.464439 422.660034,72.597298 
	C422.674774,186.903458 422.675385,301.209625 422.628418,415.515747 
	C422.627563,417.637573 422.004852,419.759155 421.454468,422.213470 
M341.262177,168.499863 
	C341.262177,249.095612 341.262177,329.691376 341.262177,410.546692 
	C363.586243,410.546692 385.323547,410.546692 407.339966,410.546692 
	C407.339966,299.432617 407.339966,188.550385 407.339966,77.618866 
	C385.191956,77.618866 363.339233,77.618866 341.262177,77.618866 
	C341.262177,107.863197 341.262177,137.681519 341.262177,168.499863 
z"/>
<path fill="#070707" opacity="1.000000" stroke="none" 
	d="
M292.700134,322.000183 
	C292.699982,353.320099 292.706055,384.140015 292.695770,414.959900 
	C292.692841,423.768555 290.606171,425.833435 281.738647,425.836365 
	C256.749542,425.844696 231.760437,425.850067 206.771332,425.833069 
	C198.643372,425.827515 196.388275,423.569489 196.387299,415.395752 
	C196.376907,329.433228 196.377365,243.470703 196.386368,157.508179 
	C196.387238,149.104660 198.618088,146.916565 207.086212,146.913910 
	C232.241913,146.906006 257.397614,146.901825 282.553314,146.916992 
	C290.273590,146.921631 292.687683,149.314224 292.690094,157.071777 
	C292.707275,211.881241 292.699768,266.690704 292.700134,322.000183 
M251.500000,161.973328 
	C238.232040,161.973328 224.964081,161.973328 211.696899,161.973328 
	C211.696899,245.166092 211.696899,327.730743 211.696899,410.528320 
	C233.692917,410.528320 255.414764,410.528320 277.309631,410.528320 
	C277.309631,327.576874 277.309631,244.903870 277.309631,161.973328 
	C268.805389,161.973328 260.652679,161.973328 251.500000,161.973328 
z"/>
<path fill="#060606" opacity="1.000000" stroke="none" 
	d="
M159.847519,353.000061 
	C159.847519,373.982697 159.855591,394.465302 159.843658,414.947937 
	C159.838684,423.464508 157.438751,425.828644 148.802826,425.831879 
	C123.824013,425.841217 98.845200,425.843994 73.866394,425.829987 
	C65.683929,425.825409 63.346828,423.579346 63.343788,415.507690 
	C63.321953,357.556854 63.322762,299.606018 63.343891,241.655197 
	C63.346813,233.642776 65.840332,231.188202 73.801605,231.183578 
	C98.946930,231.168976 124.092285,231.169403 149.237610,231.183502 
	C157.279190,231.188004 159.841156,233.826431 159.843323,242.093628 
	C159.852982,278.895782 159.847519,315.697906 159.847519,353.000061 
M78.364120,270.499878 
	C78.364120,317.113220 78.364120,363.726532 78.364120,410.382141 
	C100.809738,410.382141 122.664604,410.382141 144.455292,410.382141 
	C144.455292,355.522034 144.455292,301.091064 144.455292,246.430481 
	C122.427094,246.430481 100.684265,246.430481 78.364136,246.430481 
	C78.364136,254.259827 78.364136,261.879852 78.364120,270.499878 
z"/>
<path fill="#F4F4F4" opacity="1.000000" stroke="none" 
	d="
M341.262177,167.999847 
	C341.262177,137.681519 341.262177,107.863197 341.262177,77.618866 
	C363.339233,77.618866 385.191956,77.618866 407.339966,77.618866 
	C407.339966,188.550385 407.339966,299.432617 407.339966,410.546692 
	C385.323547,410.546692 363.586243,410.546692 341.262177,410.546692 
	C341.262177,329.691376 341.262177,249.095612 341.262177,167.999847 
z"/>
<path fill="#F3F3F3" opacity="1.000000" stroke="none" 
	d="
M252.000000,161.973328 
	C260.652679,161.973328 268.805389,161.973328 277.309631,161.973328 
	C277.309631,244.903870 277.309631,327.576874 277.309631,410.528320 
	C255.414764,410.528320 233.692917,410.528320 211.696899,410.528320 
	C211.696899,327.730743 211.696899,245.166092 211.696899,161.973328 
	C224.964081,161.973328 238.232040,161.973328 252.000000,161.973328 
z"/>
<path fill="#F3F3F3" opacity="1.000000" stroke="none" 
	d="
M78.364128,269.999878 
	C78.364136,261.879852 78.364136,254.259827 78.364136,246.430481 
	C100.684265,246.430481 122.427094,246.430481 144.455292,246.430481 
	C144.455292,301.091064 144.455292,355.522034 144.455292,410.382141 
	C122.664604,410.382141 100.809738,410.382141 78.364120,410.382141 
	C78.364120,363.726532 78.364120,317.113220 78.364128,269.999878 
z"/>
</svg>